<svg
    display="none"
    xmlns="http://www.w3.org/2000/svg"
>
    <symbol
        id="chevrone-down"
        viewBox="0 0 20 20"
        fill="currentColor"
    >
        <path
            fill-rule="evenodd"
            clip-rule="evenodd"
            d="M5.22999 7.20999C5.37325 7.07216 5.56536 6.99685 5.76413 7.0006C5.96289 7.00435 6.15203 7.08686 6.28999 7.22999L9.99999 11.168L13.71 7.22999C13.7774 7.15565 13.8591 7.0956 13.9502 7.0534C14.0412 7.01119 14.1399 6.9877 14.2402 6.98431C14.3405 6.98093 14.4405 6.99771 14.5342 7.03366C14.6279 7.06962 14.7134 7.12402 14.7857 7.19365C14.858 7.26327 14.9156 7.3467 14.9551 7.43899C14.9946 7.53127 15.0151 7.63055 15.0155 7.73092C15.0159 7.83129 14.9961 7.93072 14.9574 8.02332C14.9187 8.11592 14.8617 8.1998 14.79 8.26999L10.54 12.77C10.47 12.8426 10.3861 12.9003 10.2934 12.9398C10.2006 12.9792 10.1008 12.9995 9.99999 12.9995C9.89917 12.9995 9.79939 12.9792 9.70661 12.9398C9.61383 12.9003 9.52995 12.8426 9.45999 12.77L5.20999 8.26999C5.07216 8.12674 4.99684 7.93462 5.00059 7.73585C5.00434 7.53709 5.08685 7.34795 5.22999 7.20999Z"
        />
    </symbol>
</svg>
